<?xml version="1.0" encoding="utf-8"?>
<svg width="340" height="340" viewBox="-40 -80 400 400" xmlns="http://www.w3.org/2000/svg">
  <defs>
    <clipPath id="clipPath39">
      <path d="M 426.614,748.346 L 582.519,748.346 L 582.519,805.039 L 426.614,805.039 L 426.614,748.346 z" id="path41"/>
    </clipPath>
  </defs>
  <rect x="-40" y="-80" width="400" height="400" fill="white"/>
  <g id="layer1">
    <g transform="matrix(6.3758933,0,0,6.3758933,-1535.6353,-1162.6313)" id="g2510">
      <g transform="matrix(1.25,0,0,-1.25,297.16726,191.2573)" id="g31"/>
      <g transform="matrix(1.25,0,0,-1.25,-318.08774,1172.0583)" id="g35">
        <g clip-path="url(#clipPath39)" id="g37">
          <g transform="translate(512.0674,773.0125)" id="g43"/>
          <g transform="translate(530.8368,776.2303)" id="g47"/>
          <g transform="translate(556.338,769.7281)" id="g51"/>
          <g transform="translate(459.3618,778.7676)" id="g55">
            <path d="M 0,0 L 19.677,0 L 18.882,-3.736 L -0.795,-3.736 L 0,0 z" id="path57" style="fill:#656263;fill-opacity:1;fill-rule:nonzero;stroke:none"/>
          </g>
          <g transform="translate(461.8399,790.4927)" id="g59">
            <path d="M 0,0 L 19.677,0 L 18.882,-3.736 L -0.795,-3.736 L 0,0 z" id="path61" style="fill:#656263;fill-opacity:1;fill-rule:nonzero;stroke:none"/>
          </g>
          <g transform="translate(456.8837,767.0428)" id="g63">
            <path d="M 0,0 L 19.677,0 L 18.882,-3.736 L -0.795,-3.736 L 0,0 z" id="path65" style="fill:#656263;fill-opacity:1;fill-rule:nonzero;stroke:none"/>
          </g>
          <g transform="translate(483.1411,769.0922)" id="g67">
            <path d="M 0,0 C 0,0 -34.682,-0.007 -34.736,-0.007 L 0.012,0 L 3.305,15.49 C 3.318,15.482 -31.431,15.49 -31.431,15.49 L -32.244,11.755 L -1.258,11.762 L -2.959,3.727 L -33.909,3.719 L -34.736,-0.007" id="path69" style="fill:#656263;fill-opacity:1;fill-rule:nonzero;stroke:none"/>
          </g>
        </g>
      </g>
    </g>
  </g>
</svg>
